<svg width="15" height="17" viewBox="0 0 15 17" fill="none" xmlns="http://www.w3.org/2000/svg">
<path d="M8.11582 2.54436L12.5242 10.1798C13.395 11.6881 13.0658 13.668 11.648 14.679C11.2702 14.9506 10.8395 15.1399 10.3839 15.2347C9.92833 15.3295 9.45792 15.3277 9.00307 15.2294C8.54822 15.1311 8.11905 14.9385 7.74327 14.664C7.3675 14.3895 7.05347 14.0392 6.82148 13.6358L1.67148 4.71577C1.12565 3.77036 1.3082 2.51989 2.19223 1.8844C2.42865 1.71283 2.6985 1.59289 2.98428 1.53237C3.27005 1.47185 3.56536 1.47211 3.85103 1.53312C4.1367 1.59413 4.40635 1.71454 4.64246 1.88652C4.87858 2.0585 5.07589 2.27822 5.22159 2.5314L9.59659 10.1091C9.82576 10.5061 9.6885 11.0183 9.29157 11.2475C8.89464 11.4766 8.38238 11.3394 8.15321 10.9425L4.50738 4.62769C4.33655 4.3318 3.94951 4.22809 3.65361 4.39892C3.35772 4.56976 3.25402 4.9568 3.42485 5.25269L7.01235 11.4664C7.55818 12.4118 8.7324 12.879 9.72476 12.4311C9.99156 12.3122 10.2304 12.1384 10.4257 11.9212C10.621 11.704 10.7684 11.4481 10.8584 11.1702C10.9484 10.8923 10.9789 10.5986 10.948 10.3081C10.9172 10.0176 10.8255 9.73689 10.6791 9.48413L6.37495 2.02909C5.50412 0.520762 3.62494 -0.184078 2.04049 0.538252C1.61679 0.730212 1.23798 1.00877 0.928453 1.35599C0.618922 1.70321 0.385529 2.1114 0.243299 2.55427C0.101069 2.99715 0.0531542 3.46491 0.102639 3.92742C0.152124 4.38994 0.297912 4.83697 0.530618 5.23974L5.64312 14.0948C6.83895 16.1661 9.42533 17.1458 11.6019 16.149C14.1012 14.9947 15.0192 12.0013 13.6775 9.6775L9.19835 1.91936C9.02752 1.62346 8.64048 1.51976 8.34459 1.69059C8.04869 1.86142 7.94499 2.24846 8.11582 2.54436Z" fill="#747474"/>
</svg>
