<svg width="16" height="15" viewBox="0 0 16 15" fill="none" xmlns="http://www.w3.org/2000/svg">
<path d="M10.5 8C10.5 8.66304 10.2366 9.29893 9.76777 9.76777C9.29893 10.2366 8.66304 10.5 8 10.5C7.33696 10.5 6.70107 10.2366 6.23223 9.76777C5.76339 9.29893 5.5 8.66304 5.5 8C5.5 7.33696 5.76339 6.70107 6.23223 6.23223C6.70107 5.76339 7.33696 5.5 8 5.5C8.66304 5.5 9.29893 5.76339 9.76777 6.23223C10.2366 6.70107 10.5 7.33696 10.5 8ZM4.595 1.5375C4.75062 1.22579 4.99 0.963605 5.2863 0.780348C5.58261 0.597091 5.92411 0.500012 6.2725 0.5H9.7275C10.0759 0.500012 10.4174 0.597091 10.7137 0.780348C11.01 0.963605 11.2494 1.22579 11.405 1.5375L12.1362 3H13C13.663 3 14.2989 3.26339 14.7678 3.73223C15.2366 4.20107 15.5 4.83696 15.5 5.5V11.75C15.5 12.413 15.2366 13.0489 14.7678 13.5178C14.2989 13.9866 13.663 14.25 13 14.25H3C2.33696 14.25 1.70107 13.9866 1.23223 13.5178C0.763392 13.0489 0.5 12.413 0.5 11.75V5.5C0.5 4.83696 0.763392 4.20107 1.23223 3.73223C1.70107 3.26339 2.33696 3 3 3H3.86375L4.595 1.5375ZM11.75 8C11.75 7.00544 11.3549 6.05161 10.6517 5.34835C9.94839 4.64509 8.99456 4.25 8 4.25C7.00544 4.25 6.05161 4.64509 5.34835 5.34835C4.64509 6.05161 4.25 7.00544 4.25 8C4.25 8.99456 4.64509 9.94839 5.34835 10.6517C6.05161 11.3549 7.00544 11.75 8 11.75C8.99456 11.75 9.94839 11.3549 10.6517 10.6517C11.3549 9.94839 11.75 8.99456 11.75 8Z" fill="#747474"/>
</svg>
