<svg width="12" height="13" viewBox="0 0 12 13" fill="none" xmlns="http://www.w3.org/2000/svg">
<path d="M9.40632 6.11684L10 6.71053L6 10.7105L3.86105 8.56737L4.45474 7.97368L6 9.52316L9.40632 6.11684ZM2 7.97368V2.5H4.10526C4.55194 2.5 4.98033 2.67744 5.29618 2.99329C5.61203 3.30914 5.78947 3.73753 5.78947 4.18421C5.78947 4.83263 5.42316 5.39684 4.88421 5.67895L6.21053 7.97368H5.36842L4.15158 5.86842H2.84211V7.97368H2ZM2.84211 5.02632H4.10526C4.3286 5.02632 4.5428 4.93759 4.70072 4.77967C4.85865 4.62174 4.94737 4.40755 4.94737 4.18421C4.94737 3.96087 4.85865 3.74668 4.70072 3.58875C4.5428 3.43083 4.3286 3.34211 4.10526 3.34211H2.84211V5.02632Z" fill="#DFDFDF"/>
</svg>
