<svg width="12" height="13" viewBox="0 0 12 13" fill="none" xmlns="http://www.w3.org/2000/svg">
<mask id="mask0_7005_15029" style="mask-type:alpha" maskUnits="userSpaceOnUse" x="0" y="0" width="12" height="13">
<rect y="0.5" width="12" height="12" fill="#D9D9D9"/>
</mask>
<g mask="url(#mask0_7005_15029)">
<path d="M5.5 10.5C5.02019 10.5 4.56763 10.4089 4.14231 10.2267C3.71699 10.0445 3.34472 9.79388 3.02548 9.47471C2.70625 9.15553 2.45553 8.78332 2.27332 8.35808C2.09111 7.93284 2 7.48036 2 7.00064C2 6.51451 2.09109 6.06033 2.27327 5.6381C2.45545 5.21586 2.70612 4.84509 3.02529 4.52577C3.34447 4.20645 3.71667 3.95566 4.14192 3.77339C4.56716 3.59113 5.01964 3.5 5.49936 3.5C5.98549 3.5 6.43967 3.59111 6.8619 3.77332C7.28414 3.95553 7.65491 4.20625 7.97423 4.52548C8.29355 4.84472 8.54434 5.21539 8.7266 5.63751C8.90887 6.05962 9 6.51378 9 7C9 7.17308 8.98755 7.34295 8.96264 7.50962C8.93774 7.67628 8.90162 7.83975 8.85429 8C8.78427 7.94626 8.71018 7.90299 8.63203 7.8702C8.55387 7.83741 8.47239 7.81707 8.38758 7.80918C8.42949 7.67654 8.45871 7.54389 8.47523 7.41125C8.49175 7.2786 8.50001 7.14152 8.50001 7C8.50001 6.16666 8.20834 5.45833 7.62501 4.87499C7.04167 4.29166 6.33334 3.99999 5.5 3.99999C4.66666 3.99999 3.95833 4.29166 3.37499 4.87499C2.79166 5.45833 2.49999 6.16666 2.49999 7C2.49999 7.83334 2.79166 8.54167 3.37499 9.12501C3.95833 9.70834 4.66666 10 5.5 10C5.8432 10 6.16688 9.94773 6.47103 9.84318C6.77519 9.73863 7.05482 9.58873 7.30992 9.3935C7.35035 9.47288 7.39942 9.54117 7.4571 9.59837C7.51479 9.65557 7.58087 9.70611 7.65532 9.75C7.35601 9.9852 7.02425 10.169 6.66003 10.3014C6.29581 10.4338 5.90914 10.5 5.5 10.5ZM8.21397 9.21153C8.11274 9.21153 8.02651 9.17598 7.95526 9.10487C7.88401 9.03376 7.84838 8.94759 7.84838 8.84637C7.84838 8.74515 7.88394 8.65891 7.95505 8.58766C8.02616 8.51641 8.11233 8.48078 8.21356 8.48078C8.31477 8.48078 8.40101 8.51634 8.47226 8.58745C8.54351 8.65856 8.57914 8.74473 8.57914 8.84595C8.57914 8.94717 8.54358 9.03341 8.47247 9.10466C8.40136 9.17591 8.31519 9.21153 8.21397 9.21153ZM6.85504 8.56804L5.25001 6.96294V4.6923H5.74999V6.74852L7.21227 8.21081L6.85504 8.56804Z" fill="#DFDFDF"/>
</g>
</svg>
